<svg 
  width="40rem" 
  height="auto" 
  viewBox="-100 -100 800 800" 
  xmlns="http://www.w3.org/2000/svg" 
  fill="none" 
  stroke="#1e293b" 
  strokeWidth="2.5"
>
  <path d="M300,300 C350,100 600,150 500,50" strokeLinecap="round" />
  <path d="M300,300 C200,500 50,600 20,580" strokeLinecap="round" />
  <path d="M300,300 C400,500 600,550 580,300" strokeLinecap="round" />
  <path d="M300,300 C150,50 200,0 50,100" strokeLinecap="round"/>
  <path d="M300,300 C400,350 500,300 650,500" strokeLinecap="round" />

  <path d="M300,300 C450,50 700,100 550,20" strokeLinecap="round" />
  <path d="M300,300 C100,600 300,700 50,650" strokeLinecap="round" />
  <path d="M300,300 C50,250 -50,400 0,300" strokeLinecap="round" />
  <path d="M300,300 C100,0 200,-50 300,50" strokeLinecap="round" />

  <circle cx="300" cy="300" r="10" fill="#000000" />
  <circle cx="500" cy="50" r="6" fill="#000000" />
  <circle cx="20" cy="580" r="6" fill="#000000" />
  <circle cx="580" cy="300" r="7" fill="#000000" />
  <circle cx="50" cy="100" r="8" fill="#000000" />
  <circle cx="650" cy="500" r="9" fill="#000000" />
  <circle cx="550" cy="20" r="12" fill="#000000" />
  <circle cx="50" cy="650" r="7" fill="#000000" />
  <circle cx="0" cy="300" r="15" fill="#000000" />
  <circle cx="300" cy="50" r="8" fill="#000000" />
</svg>